<?xml version="1.0" standalone="no"?>
<!DOCTYPE svg PUBLIC "-//W3C//DTD SVG 20010904//EN"
 "http://www.w3.org/TR/2001/REC-SVG-20010904/DTD/svg10.dtd">
<svg version="1.0" xmlns="http://www.w3.org/2000/svg"
 width="210.000000pt" height="210.000000pt" viewBox="0 0 210.000000 210.000000"
 preserveAspectRatio="xMidYMid meet">
<metadata>
Created by potrace 1.11, written by Peter Selinger 2001-2013
</metadata>
<g transform="translate(0.000000,210.000000) scale(0.100000,-0.100000)"
fill="#000000" stroke="none">
<path d="M263 1979 c-74 -35 -125 -91 -153 -166 -19 -52 -20 -77 -20 -748 0
-685 0 -695 21 -752 27 -72 95 -141 167 -171 l54 -22 716 3 717 2 57 33 c68
39 111 89 138 157 18 48 19 80 17 760 l-2 710 -28 57 c-32 64 -80 111 -146
142 -45 21 -58 21 -761 23 l-715 2 -62 -30z"/>
</g>
</svg>
